<svg width="26" height="26" viewBox="0 0 26 26" fill="none" xmlns="http://www.w3.org/2000/svg">
    <metadata>
        For the idea of create of useful intelij plugin purpose. Created by WENG on 2023.11.4.
    </metadata>

    <defs>
        <linearGradient id="gradient" x1="0" y1="0" x2="1" y2="1">
            <stop stop-color="#FF00F8DD" offset="0"/>
            <stop stop-color="#59FFFFDD" offset="1"/>
        </linearGradient>

        <linearGradient id="gradient_ros" x1="0" y1="0" x2="0" y2="1">
            <stop stop-color="#2D3F5F" offset="0"/>
            <stop stop-color="#2D3F5F" offset="1"/>
        </linearGradient>
    </defs>
    <g>
        <rect fill="url(#gradient_ros)"
              x="0" y="0" width="6" height="6"
              rx="4" ry="4"/>
        <rect fill="url(#gradient_ros)"
              x="10" y="0" width="6" height="6"
              rx="4" ry="4"/>
        <rect fill="url(#gradient_ros)"
              x="20" y="0" width="6" height="6"
              rx="4" ry="4"/>

        <rect fill="url(#gradient_ros)"
              x="0" y="10" width="6" height="6"
              rx="4" ry="4"/>
        <rect fill="url(#gradient_ros)"
              x="10" y="10" width="6" height="6"
              rx="4" ry="4"/>
        <rect fill="url(#gradient_ros)"
              x="20" y="10" width="6" height="6"
              rx="4" ry="4"/>

        <rect fill="url(#gradient_ros)"
              x="0" y="20" width="6" height="6"
              rx="4" ry="4"/>
        <rect fill="url(#gradient_ros)"
              x="10" y="20" width="6" height="6"
              rx="4" ry="4"/>
        <rect fill="url(#gradient_ros)"
              x="20" y="20" width="6" height="6"
              rx="4" ry="4"/>

        <rect fill="url(#gradient)"
              x="-10" y="-10" width="50" height="50"
              rx="200" ry="200"/>

        <text x="-4.7" y="18.6"
              font-family="Arial, Helvetica, sans-serif"
              font-size="16px"
              letter-spacing="0"
              fill="#FFFFFF">
            <tspan>ROS</tspan>
        </text>
        <text x="10" y="22"
              font-family="Arial, Helvetica, sans-serif"
              font-size="1.3px"
              letter-spacing="0.1"
              fill="#000000AA">
            <tspan>DEMO MAN LAB PROD.</tspan>
        </text>
    </g>
</svg>