<svg xmlns="http://www.w3.org/2000/svg" width="16px" height="16px" viewBox="0 0 2048 2048">
	<circle fill-opacity="0.6" r="896" cx="1024" cy="1024" fill="#42b7ff"></circle>
	<g transform="scale(0.86)"><path fill-opacity="0.6" transform="translate(-39.91, 1924.6399999999999) rotate(180) scale(-1, 1)" fill="#f03362" d="M858 977v579h184v-1556h-184v141q-46 -83 -122.5 -126.5t-176.5 -43.5q-203 0 -319.5 157.5t-116.5 434.5q0 273 117 428.5t319 155.5q101 0 178 -43.5t121 -126.5zM317 559q0 -214 68 -323t201 -109t202.5 110t69.5 322q0 213 -69.5 322.5t-202.5 109.5t-201 -109 t-68 -323z"></path><path fill-opacity="0.6" transform="translate(1193.09, 1924.6399999999999) rotate(180) scale(-1, 1)" fill="#f03362" d="M676 1006q34 72 86.5 106.5t126.5 34.5q135 0 190.5 -104.5t55.5 -393.5v-649h-168v641q0 237 -26.5 294.5t-96.5 57.5q-80 0 -109.5 -61.5t-29.5 -290.5v-641h-168v641q0 240 -28.5 296t-102.5 56q-73 0 -101.5 -61.5t-28.5 -290.5v-641h-167v1120h167v-96 q33 60 82.5 91.5t112.5 31.5q76 0 126.5 -35t78.5 -106z"></path></g>
</svg>